<?xml version="1.0" encoding="UTF-8" standalone="no"?>
<!-- Created with Inkscape (http://www.inkscape.org/) -->

<svg
   xmlns:dc="http://purl.org/dc/elements/1.1/"
   xmlns:cc="http://creativecommons.org/ns#"
   xmlns:rdf="http://www.w3.org/1999/02/22-rdf-syntax-ns#"
   xmlns:svg="http://www.w3.org/2000/svg"
   xmlns="http://www.w3.org/2000/svg"
   xmlns:xlink="http://www.w3.org/1999/xlink"
   xmlns:sodipodi="http://sodipodi.sourceforge.net/DTD/sodipodi-0.dtd"
   xmlns:inkscape="http://www.inkscape.org/namespaces/inkscape"
   id="svg3759"
   version="1.1"
   inkscape:version="0.48.4 r9939"
   width="1647.8275"
   height="917.70221"
   sodipodi:docname="logo_withoutborder.svg">
  <metadata
     id="metadata3765">
    <rdf:RDF>
      <cc:Work
         rdf:about="">
        <dc:format>image/svg+xml</dc:format>
        <dc:type
           rdf:resource="http://purl.org/dc/dcmitype/StillImage" />
        <dc:title />
      </cc:Work>
    </rdf:RDF>
  </metadata>
  <defs
     id="defs3763">
    <linearGradient
       inkscape:collect="always"
       id="linearGradient3938">
      <stop
         style="stop-color:#000000;stop-opacity:1;"
         offset="0"
         id="stop3940" />
      <stop
         style="stop-color:#000000;stop-opacity:0;"
         offset="1"
         id="stop3942" />
    </linearGradient>
    <radialGradient
       inkscape:collect="always"
       xlink:href="#linearGradient3938"
       id="radialGradient3946"
       cx="695.79309"
       cy="775.61029"
       fx="695.79309"
       fy="775.61029"
       r="60.958927"
       gradientUnits="userSpaceOnUse" />
  </defs>
  <sodipodi:namedview
     pagecolor="#ffffff"
     bordercolor="#666666"
     borderopacity="1"
     objecttolerance="10"
     gridtolerance="10"
     guidetolerance="10"
     inkscape:pageopacity="0"
     inkscape:pageshadow="2"
     inkscape:window-width="1758"
     inkscape:window-height="955"
     id="namedview3761"
     showgrid="false"
     inkscape:zoom="0.5"
     inkscape:cx="755.75284"
     inkscape:cy="290.07021"
     inkscape:window-x="32"
     inkscape:window-y="29"
     inkscape:window-maximized="0"
     inkscape:current-layer="g3053"
     inkscape:snap-global="true"
     fit-margin-top="0"
     fit-margin-left="0"
     fit-margin-right="0"
     fit-margin-bottom="0" />
  <g
     inkscape:groupmode="layer"
     id="layer2"
     inkscape:label="Ebene0"
     style="display:inline"
     transform="translate(-19.084101,101.39469)" />
  <g
     inkscape:groupmode="layer"
     id="layer1"
     inkscape:label="Ebene02"
     style="display:inline"
     transform="translate(203.80741,649.99294)" />
  <g
     inkscape:groupmode="layer"
     id="layer3"
     inkscape:label="Ebene03"
     style="display:inline"
     transform="translate(-19.084101,101.39469)" />
  <g
     inkscape:groupmode="layer"
     id="layer4"
     inkscape:label="Ebene04"
     style="display:inline"
     transform="translate(-19.084101,101.39469)">
    <g
       id="g3053"
       transform="matrix(1.2324016,0,0,1.2324016,-181.56291,-86.665523)">
      <g
         transform="translate(238.89151,514.59825)"
         id="text4294"
         style="font-size:160px;font-style:normal;font-variant:normal;font-weight:normal;font-stretch:normal;text-align:start;line-height:125%;letter-spacing:0px;word-spacing:0px;writing-mode:lr-tb;text-anchor:start;fill:#000000;fill-opacity:1;stroke:none;display:inline;font-family:Probert;-inkscape-font-specification:Probert">
        <path
           inkscape:connector-curvature="0"
           id="path2997"
           d="m 109.838,-8.7888145 -93.750003,0 0,48.8281245 -15.62499956,0 0,-113.28125 15.62499956,0 0,48.828125 93.750003,0 0,-48.828125 15.625,0 0,113.28125 -15.625,0 z" />
        <path
           inkscape:connector-curvature="0"
           id="path2999"
           d="m 161.32237,21.28931 -8.35937,18.75 -15.625,0 40.625,-90.625 18.75,0 40.625,90.625 -15.625,0 -8.35938,-18.75 z M 207.72862,8.7893105 187.338,-36.67944 166.94737,8.7893105 z" />
        <path
           inkscape:connector-curvature="0"
           id="path3001"
           d="m 334.13487,11.91431 12.5,0 c -0.52093,16.770845 -5.70322,26.145836 -15.54687,28.125 l -68.75,0 C 251.92133,37.955979 246.713,27.539323 246.713,8.7893105 l 0,-28.1250005 c 0,-18.749921 5.20833,-29.166578 15.625,-31.25 l 68.75,0 c 9.84365,1.979256 15.02594,11.354246 15.54687,28.125 l -12.5,0 c -0.46883,-10.416593 -3.56779,-15.624921 -9.29687,-15.625 l -56.25,0 c -6.25002,7.9e-5 -9.37502,6.250072 -9.375,18.75 l 0,28.1250005 c -2e-5,12.5000185 3.12498,18.7500125 9.375,18.7499995 l 56.25,0 c 5.72908,1.3e-5 8.82804,-5.208315 9.29687,-15.625 z" />
        <path
           inkscape:connector-curvature="0"
           id="path3003"
           d="m 400.93175,0.97681046 -32.34375,0 0,39.06249954 -12.5,0 0,-90.625 12.5,0 0,39.0625 32.34375,0 36.40625,-39.0625 15.625,0 -42.1875,45.3125005 42.1875,45.3124995 -15.625,0 z" />
        <path
           inkscape:connector-curvature="0"
           id="path3005"
           d="m 462.338,-38.163815 0,-12.421875 87.5,0 0,12.5 -68.75,65.625 68.75,0 0,12.5 -87.5,0 0,-12.5 68.75,-65.625 z" />
        <path
           inkscape:connector-curvature="0"
           id="path3007"
           d="M 909.13487,11.992435 C 908.61394,28.711197 903.43165,38.060146 893.588,40.03931 l -68.75,0 C 814.42133,37.955979 809.213,27.539323 809.213,8.7893105 l 0,-28.1250005 c 0,-18.749921 5.20833,-29.166578 15.625,-31.25 l 68.75,0 c 9.84365,1.979256 15.02594,11.354246 15.54687,28.125 l -12.5,0 c -0.46883,-10.416593 -3.56779,-15.624921 -9.29687,-15.625 l -56.25,0 c -6.25002,7.9e-5 -9.37502,6.250072 -9.375,18.75 l 0,28.1250005 c -2e-5,12.5000185 3.12498,18.7500125 9.375,18.7499995 l 56.25,0 c 5.72908,1.3e-5 8.82804,-5.208315 9.29687,-15.625 l 0.0781,0 0,-10.93749954 -37.5,0 0,-12.50000046 50,0 0,23.4375 z" />
        <path
           inkscape:connector-curvature="0"
           id="path3009"
           d="m 968.588,40.03931 -12.5,0 0,-78.125 -37.5,0 0,-12.5 87.5,0 0,12.5 -37.5,0 z" />
        <path
           inkscape:connector-curvature="0"
           id="path3011"
           d="m 1109.213,-50.58569 0,75 c -2.0834,10.416672 -12.5001,15.625 -31.25,15.625 l -31.25,0 c -18.75,0 -29.1667,-5.208328 -31.25,-15.625 l 0,-75 12.5,0 0,68.75 c 0,6.250016 6.25,9.375013 18.75,9.375 l 31.25,0 c 12.4999,1.3e-5 18.7499,-3.124984 18.75,-9.375 l 0,-68.75 z" />
        <path
           inkscape:connector-curvature="0"
           id="path3013"
           d="m 1131.088,-36.67944 0,76.71875 -12.5,0 0,-90.625 21.875,0 34.375,76.71875 34.375,-76.71875 21.875,0 0,90.625 -12.5,0 0,-76.71875 -34.375,76.71875 -18.75,0 z" />
      </g>
      <path
         sodipodi:nodetypes="ccccccccccccccccccccccccccccccccccccccccccccccccccccccccccccccccccccccccccccccccccccccccccccccccccccccccccccccccccccccccccccccccccccccccccccccccccccccccccccccccccccccccccccccccccccccccccccccccccccccccccccccccccccccccccccccccccccccccccccccccccccccccccccccccccccccccccccccccccccccccc"
         inkscape:connector-curvature="0"
         d="m 1482.9583,642.66414 -12.0905,0.01 c -7.5549,0.015 -13.1261,-4.5555 -13.1745,-12.1104 l -0.096,-8.8118 0.108,-13.3674 c -0.1185,-5.8723 -3.7166,-11.5902 -9.6106,-11.5432 l -5.7967,-0.01 -5.7967,0.019 c -5.894,-0.047 -9.4921,5.6709 -9.6106,11.5432 l 0.1138,13.3674 -0.071,8.8052 c -0.048,7.5549 -5.6196,12.1254 -13.1745,12.1104 l -12.0905,0.01 -12.0905,0.01 c -7.5549,0.015 -13.1261,-4.5555 -13.1745,-12.1104 l -0.091,-8.8131 0.1132,-13.3688 c -0.1185,-5.8723 -3.7166,-11.5902 -9.6106,-11.5432 l -5.7967,-0.01 -5.7967,0.019 c -5.894,-0.047 -9.4921,5.6709 -9.6106,11.5432 l 0.1138,13.3674 -0.071,8.8052 c -0.048,7.5549 -5.6196,12.1254 -13.1745,12.1104 l -12.0905,0.01 -12.0905,0.01 c -7.5549,0.015 -13.1261,-4.5555 -13.1745,-12.1104 l -0.096,-8.8118 0.108,-13.3674 c -0.1185,-5.8723 -3.7166,-11.5902 -9.6106,-11.5432 l -5.7967,-0.01 -5.7967,0.019 c -5.894,-0.047 -9.4921,5.6709 -9.6106,11.5432 l 0.1138,13.3674 -0.071,8.8052 c -0.048,7.5549 -5.6196,12.1254 -13.1745,12.1104 l -12.0905,0.01 -12.0905,0.01 c -7.5549,0.015 -13.1261,-4.5555 -13.1745,-12.1104 l -0.084,-8.8137 0.1193,-13.3693 c -0.1185,-5.8723 -3.7166,-11.5902 -9.6106,-11.5432 l -5.7967,-0.01 -5.7967,0.019 c -5.894,-0.047 -9.4921,5.6709 -9.6106,11.5432 l 0.1138,13.3674 -0.071,8.8052 c -0.048,7.5549 -5.6196,12.1254 -13.1745,12.1104 l -12.0905,0.01 -12.0905,0.01 c -7.5549,0.015 -13.1261,-4.5555 -13.1745,-12.1104 l -0.096,-8.8118 0.108,-13.3674 c -0.1185,-5.8723 -3.7166,-11.5902 -9.6106,-11.5432 l -5.7967,-0.01 -5.7967,0.019 c -5.894,-0.047 -9.4921,5.6709 -9.6106,11.5432 l 0.1138,13.3674 -0.071,8.8052 c -0.048,7.5549 -5.6196,12.1254 -13.1745,12.1104 l -12.0905,0.01 -12.0905,0.01 c -7.5549,0.015 -13.1261,-4.5555 -13.1745,-12.1104 l -0.096,-8.8178 0.1083,-13.3733 c -0.1185,-5.8723 -3.7166,-11.5902 -9.6106,-11.5432 l -5.7967,-0.01 -5.7967,0.019 c -5.894,-0.047 -9.4921,5.6709 -9.6106,11.5432 l 0.1138,13.3674 -0.071,8.8052 c -0.048,7.5549 -5.6196,12.1254 -13.1745,12.1104 l -12.09048,0.01 -12.0905,0.01 c -7.5549,0.015 -13.1261,-4.5555 -13.1745,-12.1104 l -0.096,-8.8118 0.108,-13.3674 c -0.1185,-5.8723 -3.7166,-11.5902 -9.6106,-11.5432 l -5.7967,-0.01 -5.7967,0.019 c -5.894,-0.047 -9.4921,5.6709 -9.6106,11.5432 l 0.1138,13.3674 -0.071,8.8052 c -0.048,7.5549 -5.6196,12.1254 -13.1745,12.1104 l -12.0905,0.01 -12.0905,0.01 c -7.5549,0.015 -13.1261,-4.5555 -13.1745,-12.1104 l -0.085,-8.8137 0.1193,-13.3693 c -0.1185,-5.8723 -3.7166,-11.5902 -9.6106,-11.5432 l -5.7967,-0.01 -5.7967,0.019 c -5.894,-0.047 -9.4921,5.6709 -9.6106,11.5432 l 0.1138,13.3674 -0.071,8.8052 c -0.048,7.5549 -5.6196,12.1254 -13.1745,12.1104 l -12.0905,0.01 -12.0905,0.01 c -7.5549,0.015 -13.1261,-4.5555 -13.1745,-12.1104 l -0.096,-8.8118 0.108,-11.3674 c -0.1185,-5.8723 -3.7166,-11.5902 -9.6106,-11.5432 l -5.7967,-0.01 -5.7967,0.019 c -5.894,-0.047 -9.4921,5.6709 -9.6106,11.5432 l 0.1138,11.3674 -0.071,8.8052 c -0.048,7.5549 -5.6196,12.1254 -13.1745,12.1104 l -12.0905,0.01 -12.0905,0.01 c -7.5549,0.015 -13.1261,-4.5555 -13.1745,-12.1104 l 0.0222,-16.1819 c -0.1185,-5.8723 -3.7166,-11.5902 -9.6106,-11.5432 l -5.7967,-0.01 -5.7967,0.019 c -5.894,-0.047 -9.4921,5.6709 -9.6106,11.5432 l 0.0428,16.1726 c -0.048,7.5549 -5.6196,12.1254 -13.1745,12.1104 l -12.0905,0.01 -12.0905,0.01 c -7.5549,0.015 -13.1261,-4.5555 -13.1745,-12.1104 l 0.012,-12.1792 c -0.1185,-5.8723 -3.7166,-11.5902 -9.6106,-11.5432 l -5.7967,-0.01 -5.7967,0.019 c -5.894,-0.047 -9.4921,5.6709 -9.6106,11.5432 l 0.0428,12.1726 c -0.048,7.5549 -5.6196,12.1254 -13.1745,12.1104 l -12.0905,0.01 -12.0905,0.01 c -7.5549,0.015 -13.1261,-4.5555 -13.1745,-12.1104 l 0.0353,-6.183 c -0.1185,-5.8723 -3.7166,-11.5902 -9.6106,-11.5432 l -5.7967,-0.01 -5.7967,0.019 c -5.894,-0.047 -9.4921,5.6709 -9.6106,11.5432 l 0.0428,6.1726 c -0.048,7.5549 -5.6196,12.1254 -13.1745,12.1104 l -12.0905,0.01 -12.0905,0.01 c -7.5549,0.015 -13.1261,-4.5555 -13.1745,-12.1104 l 0.012,-0.1792 c -0.1185,-5.8723 -3.7166,-11.5902 -9.6106,-11.5432 l -5.7967,-0.01 -5.7967,0.019 c -5.894,-0.047 -9.4921,5.6709 -9.6106,11.5432 l 0.0428,0.1726 c -0.048,7.5549 -5.6196,12.1254 -13.1745,12.1104 l -12.02408,0.0663 -202.43765,-0.10338 c -14.01586,-0.0429 -28.73883,-5.97492 -35.68363,-14.14956 -6.13841,-7.17035 -10.1555,-21.76532 -10.99061,-37.42095 l 0.96983,-365.75026 0.25866,-12.45809 15.25865,-38.4581 26.18547,-63.52401 0,-18.91173 0.48492,18.42681 24.24581,61.09943 14.45698,42.55195 0.0905,10.78882 0.48492,68.85809 32.01954,-0.42458 29.5648,-50.00669 19.30838,-33.71341 54.56999,-0.47853 47.092,-0.23711 -0.46983,-13.10782 1.60112,-5.67254 -6.5246,-6.3088 -4.38865,-7.58675 -2.46999,-8.20304 -1.4904,-9.48101 1.10607,-11.33961 3.97504,-10.36002 5.11676,-8.19327 7.26887,-7.49594 7.79431,-5.33407 7.89978,-2.99544 6.43515,-1.99541 6.89441,-4.72849 0,-21.33631 0,20.85139 7.02562,5.68324 6.12717,1.69747 6.39473,2.33375 6.74829,4.15182 5.95036,4.80374 5.11677,5.86929 4.50049,6.58128 3.04086,8.05703 1.50016,9.61725 -0.30814,8.95556 -1.79854,7.30452 -1.98508,5.81899 -3.40906,5.90982 -6.39811,7.44564 1.11115,6.16755 0.14645,13.10359 100.86891,-0.30007 28.7847,55.3671 51.5017,-60.80593 66.57189,0.17275 132.14313,0.50363 30.09558,-70.37439 3.6166,-8.7983 196.76483,0.31696 43.5006,98.73729 20.1318,44.83654 3.175,7.7566 0.4541,6.08171 0.6162,28.1349 22.6598,-0.01 14.1225,-0.021 -0.06,-10.64714 -0.4849,-52.37094 0.01,-9.88974 35.8288,-101.43621 0.05,-26.21118 1.2996,26.28883 37.7018,101.14613 -0.2124,9.62702 0.1816,64.26339 52.2797,66.96716 108.65,0.66957 m 18.8714,-14.51805 c -3.8617,-0.35915 -4.7183,-0.27636 -8.138,0.24837 -3.9661,1.60181 -4.5735,2.14295 -6.8602,4.27509 -2.2005,2.51829 -2.4565,3.00365 -3.1544,5.96389 -0.7793,3.22451 -0.8514,3.88577 0.049,7.28706 0.6685,3.05199 0.9833,3.54071 2.8008,5.70881 2.3282,2.58514 2.8003,2.78379 6.7195,4.30826 4.2187,0.66658 4.8134,0.62605 9.2089,0.14358 3.5875,-1.52788 4.0814,-1.99509 6.2547,-4.31847 2.2779,-2.42881 2.5229,-3.08986 3.3866,-5.69545 0.6143,-4.0741 0.5215,-4.87783 -0.2784,-8.77515 -1.515,-3.11973 -1.9694,-3.67619 -4.2799,-5.91203 -2.4331,-1.96187 -2.9216,-2.24436 -5.7082,-3.23396 z M 223.92252,63.21053 c -3.8617,-0.35915 -4.7183,-0.27636 -8.138,0.24837 -3.9661,1.60181 -4.5735,2.14295 -6.8602,4.27509 -2.2005,2.51829 -2.4565,3.00365 -3.1544,5.96389 -0.7793,3.22451 -0.8514,3.88577 0.049,7.28706 0.6685,3.05199 0.9833,3.54071 2.8008,5.70881 2.3282,2.58514 2.8003,2.78379 6.7195,4.30826 4.2187,0.66658 4.8134,0.62605 9.2089,0.14358 3.5875,-1.52788 4.0814,-1.99509 6.2547,-4.31847 2.2779,-2.42881 2.5229,-3.08986 3.3866,-5.69545 0.6143,-4.0741 0.5215,-4.87783 -0.2784,-8.77515 -1.515,-3.11973 -1.9694,-3.67619 -4.2799,-5.91203 -2.4331,-1.96187 -2.9216,-2.24436 -5.7082,-3.23396 z M 1262.9658,81.72387 c -3.8617,-0.35915 -4.7183,-0.27636 -8.138,0.24837 -3.9661,1.60181 -4.5735,2.14295 -6.8602,4.27509 -2.2005,2.51829 -2.4565,3.00365 -3.1544,5.96389 -0.7793,3.22451 -0.8514,3.88577 0.049,7.28706 0.6685,3.05199 0.9833,3.54071 2.8008,5.70881 2.3282,2.58514 2.8003,2.78379 6.7195,4.30826 4.2187,0.66658 4.8134,0.62605 9.2089,0.14358 3.5875,-1.52788 4.0814,-1.99509 6.2547,-4.31847 2.2779,-2.42881 2.5229,-3.08986 3.3866,-5.69545 0.6143,-4.0741 0.5215,-4.87783 -0.2784,-8.77515 -1.515,-3.11973 -1.9694,-3.67619 -4.2799,-5.91203 -2.4331,-1.96187 -2.9216,-2.24436 -5.7082,-3.23396 z M 479.17671,56.2325 c -3.8617,-0.35915 -4.7183,-0.27636 -8.138,0.24837 -3.9661,1.60181 -4.5735,2.14295 -6.8602,4.27509 -2.2005,2.51829 -2.4565,3.00365 -3.1544,5.96389 -0.7793,3.22451 -0.8514,3.88577 0.049,7.28706 0.6685,3.05199 0.9833,3.54071 2.8008,5.70881 2.3282,2.58514 2.8003,2.78379 6.7195,4.30826 4.2187,0.66658 4.8134,0.62605 9.2089,0.14358 3.5875,-1.52788 4.0814,-1.99509 6.2547,-4.31847 2.2779,-2.42881 2.5229,-3.08986 3.3866,-5.69545 0.6143,-4.0741 0.5215,-4.87783 -0.2784,-8.77515 -1.515,-3.11973 -1.9694,-3.67619 -4.2799,-5.91203 -2.4331,-1.96187 -2.9216,-2.24436 -5.7082,-3.23396 z"
         style="fill:none;stroke:#000000;stroke-width:14;stroke-linecap:butt;stroke-linejoin:miter;stroke-miterlimit:4;stroke-opacity:1;stroke-dasharray:none;display:inline"
         id="path4474-7-1-1-5-2-4-7-4-0-9-4-8-8-2-4-5-5-1-7-1-1-8-4-7-1-1-5-2-7-6" />
      <path
         inkscape:connector-curvature="0"
         id="path4354-6-1-8-9-7"
         d="m 919.50944,390.41462 -7.78125,0.0313 -8.875,0.7187 -4.3125,0.9376 -0.34375,36.75 -7.25,1.75 -6.74999,2.25 -7.50001,3.5 -6.5,3.99999 -26.25,-26.25 -2.9375,2.0624 -5.90624,4.93761 -5.50001,5.5 -5.78125,6.7812 -2.37499,3.7188 25.71874,26.25 -3.90624,6.375 -3.18751,6.37499 -2.8125,7.75003 -1.78125,7.43738 -37.12499,10e-6 -0.62471,3.53137 -0.6875,7.65623 0.0312,7.78124 0.68749,8.87502 0.93751,4.34378 36.78124,0.34372 1.71877,7.21863 2.24999,6.75006 3.5,7.50001 4,6.49994 -26.25,26.25003 2.03124,2.93765 4.96876,5.90615 5.5,5.50002 6.78125,5.78118 3.71875,2.37503 26.25,-25.71876 6.375,3.90636 6.34375,3.1874 7.78125,2.81253 7.43749,1.78127 0,37.12501 3.49961,0.62723 7.6875,0.68747 7.78125,-0.0313 8.875,-0.68742 4.31251,-0.93758 0.34374,-36.7812 7.24999,-1.74994 6.75001,-2.25005 7.5,-3.50002 6.5,-3.99995 26.25001,26.24996 2.93748,-2.06244 5.90625,-4.93751 5.5,-5.49999 5.78127,-6.78122 2.375,-3.71878 -25.71877,-26.25001 3.90626,-6.37504 3.1875,-6.34377 2.8125,-7.78123 1.78125,-7.43748 37.12496,-10e-6 0.6253,-3.5 0.6875,-7.68746 -0.031,-7.7812 -0.6875,-8.875 -0.9375,-4.3126 -36.78125,-0.3437 -1.71875,-7.25 -2.25,-6.75 -3.5,-7.5 -3.99999,-6.5 26.24999,-26.25 -2.0312,-2.9375 -4.9688,-5.9062 -5.5,-5.5 -6.78124,-5.75 -3.71875,-2.4063 -26.25,25.7187 -6.37501,-3.9062 -6.34374,-3.1875 -7.78126,-2.8125 -7.4375,-1.7812 10e-6,-37.125 -3.49996,-0.62526 -7.6875,-0.68761 z m -2.09375,68.96881 8.75001,1.40619 7.84374,2.75 6.6875,3.68761 6.46876,4.84369 5.0625,5.53131 4.59374,6.4687 3.9375,8.7813 1.84375,8.74999 0.5,7.40624 -0.71876,8.2812 -2.78124,9.2188 -3.90624,7.37493 -5.3125,7.40621 -6.21877,5.53136 -7.62499,4.87499 -7.84375,2.96865 -8.74999,2.09379 -8.78126,5e-5 -7.84375,-0.93749 -7.15625,-2.53133 -8.28126,-4.15617 -6.46874,-5.06249 -6.03125,-6.93751 -4.59375,-7.15622 -3.24999,-7.625 -1.81251,-8.74997 10e-6,-8.31268 0.90625,-7.62497 2.09374,-6.65615 3.21875,-6.68753 4.40625,-6.93751 4.8125,-4.8438 6.25001,-5.06239 6.68749,-3.6876 7.125,-2.53121 7.40625,-1.62499 8.78125,-0.25 z"
         style="fill:#000000;fill-opacity:1;stroke:#000000;stroke-width:2;stroke-linecap:butt;stroke-linejoin:miter;stroke-miterlimit:4;stroke-opacity:1;stroke-dasharray:none;display:inline" />
    </g>
  </g>
  <g
     inkscape:groupmode="layer"
     id="layer5"
     inkscape:label="Ebene05"
     transform="translate(-19.084101,101.39469)"
     style="display:none" />
  <g
     inkscape:groupmode="layer"
     id="layer6"
     inkscape:label="Ebene06"
     transform="translate(-19.084101,101.39469)"
     style="display:none" />
</svg>
